<?xml version="1.0" encoding="UTF-8" standalone="no"?>
<!-- Created with Inkscape (http://www.inkscape.org/) -->

<svg
   xmlns:dc="http://purl.org/dc/elements/1.1/"
   xmlns:cc="http://creativecommons.org/ns#"
   xmlns:rdf="http://www.w3.org/1999/02/22-rdf-syntax-ns#"
   xmlns:svg="http://www.w3.org/2000/svg"
   xmlns="http://www.w3.org/2000/svg"
   xmlns:sodipodi="http://sodipodi.sourceforge.net/DTD/sodipodi-0.dtd"
   xmlns:inkscape="http://www.inkscape.org/namespaces/inkscape"
   width="4.7620001mm"
   height="10.05417mm"
   viewBox="0 0 4.7620001 10.05417"
   version="1.1"
   id="svg3924"
   inkscape:version="0.92.4 (5da689c313, 2019-01-14)"
   sodipodi:docname="single_cell.svg">
  <defs
     id="defs3918" />
  <sodipodi:namedview
     id="base"
     pagecolor="#ffffff"
     bordercolor="#666666"
     borderopacity="1.0"
     inkscape:pageopacity="0.0"
     inkscape:pageshadow="2"
     inkscape:zoom="7.9195959"
     inkscape:cx="25.637421"
     inkscape:cy="35.561688"
     inkscape:document-units="mm"
     inkscape:current-layer="layer1"
     showgrid="false"
     inkscape:window-width="1680"
     inkscape:window-height="987"
     inkscape:window-x="-8"
     inkscape:window-y="-8"
     inkscape:window-maximized="1" />
  <metadata
     id="metadata3921">
    <rdf:RDF>
      <cc:Work
         rdf:about="">
        <dc:format>image/svg+xml</dc:format>
        <dc:type
           rdf:resource="http://purl.org/dc/dcmitype/StillImage" />
        <dc:title></dc:title>
      </cc:Work>
    </rdf:RDF>
  </metadata>
  <g
     inkscape:label="Layer 1"
     inkscape:groupmode="layer"
     id="layer1"
     transform="translate(-18,-248.94583)">
    <path
       style="fill:#000000;stroke-width:0.26456943"
       d="m 18,253.97292 v -5.02709 h 2.381 2.381 V 253.97292 259 H 20.381 18 Z m 1.058219,3.70416 v -0.79375 h -0.264552 -0.264563 v 0.79375 0.79375 h 0.264563 0.264552 z m 1.058219,0 v -0.79375 h -0.264552 -0.264553 v 0.79375 0.79375 h 0.264553 0.264552 z m 1.058229,0 v -0.79375 h -0.264563 -0.264552 v 0.79375 0.79375 h 0.264552 0.264563 z m 1.058219,0 v -0.79375 h -0.264553 -0.264562 v 0.79375 0.79375 h 0.264562 0.264553 z M 19.058219,255.825 v -0.79375 h -0.264552 -0.264563 v 0.79375 0.79375 h 0.264563 0.264552 z m 1.058219,0 v -0.79375 h -0.264552 -0.264553 v 0.79375 0.79375 h 0.264553 0.264552 z m 1.058229,0 v -0.79375 h -0.264563 -0.264552 v 0.79375 0.79375 h 0.264552 0.264563 z m 1.058219,0 v -0.79375 h -0.264553 -0.264562 v 0.79375 0.79375 h 0.264562 0.264553 z m -3.174667,-1.85208 v -0.79375 h -0.264552 -0.264563 v 0.79375 0.79375 h 0.264563 0.264552 z m 1.058219,0 v -0.79375 h -0.264552 -0.264553 v 0.79375 0.79375 h 0.264553 0.264552 z m 1.058229,0 v -0.79375 h -0.264563 -0.264552 v 0.79375 0.79375 h 0.264552 0.264563 z m 1.058219,0 v -0.79375 h -0.264553 -0.264562 v 0.79375 0.79375 h 0.264562 0.264553 z m -3.174667,-1.85209 v -0.79375 h -0.264552 -0.264563 v 0.79375 0.79375 h 0.264563 0.264552 z m 1.058219,0 v -0.79375 h -0.264552 -0.264553 v 0.79375 0.79375 h 0.264553 0.264552 z m 1.058229,0 v -0.79375 h -0.264563 -0.264552 v 0.79375 0.79375 h 0.264552 0.264563 z m 1.058219,0 v -0.79375 h -0.264553 -0.264562 v 0.79375 0.79375 h 0.264562 0.264553 z m -3.174667,-1.85208 V 249.475 h -0.264552 -0.264563 v 0.79375 0.79375 h 0.264563 0.264552 z m 1.058219,0 V 249.475 h -0.264552 -0.264553 v 0.79375 0.79375 h 0.264553 0.264552 z m 1.058229,0 V 249.475 h -0.264563 -0.264552 v 0.79375 0.79375 h 0.264552 0.264563 z m 1.058219,0 V 249.475 h -0.264553 -0.264562 v 0.79375 0.79375 h 0.264562 0.264553 z"
       id="path3893"
       inkscape:connector-curvature="0" />
  </g>
</svg>
